<svg height="512pt" viewBox="0 0 512 512" width="512pt" xmlns="http://www.w3.org/2000/svg"><path d="m30 210h452v30h-452zm0 0"/><path d="m505.859375 122.578125c0-12.027344-4.6875-23.335937-13.183594-31.816406-8.148437-8.144531-18.664062-12.507813-29.34375-13.097657-.585937-10.675781-4.949219-21.195312-13.078125-29.339843-16.992187-16.976563-46.65625-17.007813-63.648437 0-13.828125 13.828125-16.757813 34.496093-8.789063 51.226562l-72.421875 72.421875c-2.261719 2.261719-3.375 5.101563-3.894531 8.027344h123.132812l16.816407-16.816406c16.769531 7.984375 37.394531 5.039062 51.226562-8.789063 8.496094-8.496093 13.183594-19.804687 13.183594-31.816406zm0 0"/><path d="m346 377c8.277344 0 15-6.722656 15-15s-6.722656-15-15-15-15 6.722656-15 15c0 8.289062-6.707031 15-15 15h-120c-8.289062 0-15-6.710938-15-15 0-8.277344-6.722656-15-15-15s-15 6.722656-15 15 6.722656 15 15 15c8.292969 0 15 6.710938 15 15s-6.707031 15-15 15c-8.277344 0-15 6.722656-15 15s6.722656 15 15 15 15-6.722656 15-15c0-8.289062 6.710938-15 15-15h120c8.292969 0 15 6.710938 15 15 0 8.277344 6.722656 15 15 15s15-6.722656 15-15-6.722656-15-15-15c-8.289062 0-15-6.710938-15-15s6.710938-15 15-15zm0 0"/><path d="m483.988281 270h-455.976562l-27.664063 191.417969c-1.597656 12.804687 2.371094 25.679687 10.914063 35.363281 8.539062 9.667969 20.828125 15.21875 33.734375 15.21875h422.007812c12.90625 0 25.195313-5.550781 33.734375-15.21875 8.542969-9.683594 12.511719-22.558594 10.914063-35.363281zm-92.988281 152c0 24.8125-20.1875 45-45 45-19.554688 0-36.238281-12.539062-42.4375-30h-95.125c-6.199219 17.460938-22.882812 30-42.4375 30-24.816406 0-45-20.1875-45-45 0-11.515625 4.351562-22.03125 11.484375-30-7.132813-7.96875-11.484375-18.484375-11.484375-30 0-24.8125 20.1875-45 45-45 19.554688 0 36.238281 12.539062 42.4375 30h95.125c6.199219-17.460938 22.882812-30 42.4375-30 24.816406 0 45 20.1875 45 45 0 11.515625-4.351562 22.03125-11.484375 30 7.132813 7.96875 11.484375 18.484375 11.484375 30zm0 0"/><path d="m301 180v-92.5625c17.460938-6.199219 30-22.882812 30-42.4375 0-24.8125-20.1875-45-45-45-11.515625 0-22.03125 4.351562-30 11.484375-7.96875-7.132813-18.484375-11.484375-30-11.484375-24.8125 0-45 20.1875-45 45 0 19.554688 12.539062 36.238281 30 42.4375v92.5625zm0 0"/><path d="m61.761719 48.324219c-8.144531 8.144531-12.507813 18.664062-13.09375 29.339843-10.679688.589844-21.199219 4.953126-29.34375 13.082032-8.496094 8.496094-13.183594 19.804687-13.183594 31.832031 0 12.011719 4.6875 23.320313 13.183594 31.816406 13.828125 13.84375 34.496093 16.785157 51.226562 8.789063l16.816407 16.816406h123.132812c-.519531-2.925781-1.632812-5.765625-3.894531-8.027344l-72.421875-72.421875c7.96875-16.730469 5.039062-37.398437-8.789063-51.226562-17.007812-17.007813-46.683593-16.976563-63.632812 0zm0 0"/></svg>